<?xml version="1.0" encoding="UTF-8"?>
<svg version="1.1" xmlns="http://www.w3.org/2000/svg" width="165" height="79">
<path d="M0 0 C54.45 0 108.9 0 165 0 C165 26.07 165 52.14 165 79 C110.55 79 56.1 79 0 79 C0 52.93 0 26.86 0 0 Z " fill="#FDFEFE" transform="translate(0,0)"/>
<path d="M0 0 C2.91963173 1.98783437 4.61102978 3.4314697 5.48046875 6.9375 C5.75815509 10.90015906 5.23092162 12.66411401 2.9375 16 C-0.77807226 18.52975133 -2.5882483 18.7878128 -7 18 C-9.91963173 16.01216563 -11.61102978 14.5685303 -12.48046875 11.0625 C-12.75815509 7.09984094 -12.23092162 5.33588599 -9.9375 2 C-6.22192774 -0.52975133 -4.4117517 -0.7878128 0 0 Z " fill="#2D262A" transform="translate(120,31)"/>
<path d="M0 0 C2.91963173 1.98783437 4.61102978 3.4314697 5.48046875 6.9375 C5.75815509 10.90015906 5.23092162 12.66411401 2.9375 16 C-0.77807226 18.52975133 -2.5882483 18.7878128 -7 18 C-9.91963173 16.01216563 -11.61102978 14.5685303 -12.48046875 11.0625 C-12.75815509 7.09984094 -12.23092162 5.33588599 -9.9375 2 C-6.22192774 -0.52975133 -4.4117517 -0.7878128 0 0 Z " fill="#2D262A" transform="translate(62,31)"/>
<path d="M0 0 C10.49915863 -0.37055854 10.49915863 -0.37055854 12.83203125 1.35546875 C14.49776873 3.7008717 14.42147552 5.19016323 14 8 C12.9375 9.8125 12.9375 9.8125 11 11 C7.3125 11.1875 7.3125 11.1875 4 11 C4 13.31 4 15.62 4 18 C2.68 18 1.36 18 0 18 C0 12.06 0 6.12 0 0 Z " fill="#30292A" transform="translate(70,31)"/>
<path d="M0 0 C0.99 0 1.98 0 3 0 C3 2.31 3 4.62 3 7 C5.31 7 7.62 7 10 7 C10 4.69 10 2.38 10 0 C11.32 0 12.64 0 14 0 C14 5.94 14 11.88 14 18 C12.68 18 11.36 18 10 18 C10 15.36 10 12.72 10 10 C7.69 10 5.38 10 3 10 C3 12.64 3 15.28 3 18 C2.01 18 1.02 18 0 18 C0 12.06 0 6.12 0 0 Z " fill="#2C2426" transform="translate(33,31)"/>
<path d="M0 0 C2.375 1.375 2.375 1.375 4 3 C4 3.66 4 4.32 4 5 C1.03 4.67 -1.94 4.34 -5 4 C-2.59027489 6.40972511 -0.04587368 7.50946607 3 9 C4 10 4 10 4.25 12.9375 C4.1675 13.948125 4.085 14.95875 4 16 C0.2794164 18.48038907 -1.59796571 18.46337203 -6 18 C-8.4375 16.125 -8.4375 16.125 -10 14 C-10 13.34 -10 12.68 -10 12 C-8.68 12 -7.36 12 -6 12 C-5.67 12.66 -5.34 13.32 -5 14 C-3.35 14 -1.7 14 0 14 C0 13.34 0 12.68 0 12 C-4.455 10.02 -4.455 10.02 -9 8 C-9.1875 5.125 -9.1875 5.125 -9 2 C-5.51131349 -0.32579101 -4.10281481 -0.41865457 0 0 Z " fill="#282529" transform="translate(25,31)"/>
<path d="M0 0 C2.375 1.5 2.375 1.5 4 3 C3.67 3.99 3.34 4.98 3 6 C2.01 6 1.02 6 0 6 C-0.33 5.34 -0.66 4.68 -1 4 C-2.98 4 -4.96 4 -7 4 C-7 7.3 -7 10.6 -7 14 C-2.74268432 14.40749675 -2.74268432 14.40749675 0.875 12.5 C1.24625 12.005 1.6175 11.51 2 11 C2.66 11.33 3.32 11.66 4 12 C2.25 16.875 2.25 16.875 0 18 C-3.93429172 18.52457223 -5.54458957 18.30690703 -8.875 16.0625 C-11.36780574 12.46992702 -11.74172742 10.38295703 -11.484375 6.09375 C-11 4 -11 4 -8.875 1.4375 C-5.53248818 -0.23375591 -3.68818005 -0.54930341 0 0 Z " fill="#262329" transform="translate(101,31)"/>
<path d="M0 0 C2.5 0.25 2.5 0.25 4.5 2.25 C4.765625 4.125 4.765625 4.125 4.75 6.25 C4.75515625 6.95125 4.7603125 7.6525 4.765625 8.375 C4.5 10.25 4.5 10.25 2.5 12.25 C0 12.5 0 12.5 -2.5 12.25 C-4.5 10.25 -4.5 10.25 -4.765625 8.375 C-4.76046875 7.67375 -4.7553125 6.9725 -4.75 6.25 C-4.75515625 5.54875 -4.7603125 4.8475 -4.765625 4.125 C-4.31971142 0.97737476 -3.03899237 0.30389924 0 0 Z " fill="#F3F7F5" transform="translate(116.5,33.75)"/>
<path d="M0 0 C2.5 0.25 2.5 0.25 4.5 2.25 C4.765625 4.125 4.765625 4.125 4.75 6.25 C4.75515625 6.95125 4.7603125 7.6525 4.765625 8.375 C4.5 10.25 4.5 10.25 2.5 12.25 C0 12.5 0 12.5 -2.5 12.25 C-4.5 10.25 -4.5 10.25 -4.765625 8.375 C-4.76046875 7.67375 -4.7553125 6.9725 -4.75 6.25 C-4.75515625 5.54875 -4.7603125 4.8475 -4.765625 4.125 C-4.31971142 0.97737476 -3.03899237 0.30389924 0 0 Z " fill="#F3F7F5" transform="translate(58.5,33.75)"/>
<path d="M0 0 C1.65 0 3.3 0 5 0 C5.5625 1.9375 5.5625 1.9375 6 4 C5 5 5 5 2.4375 5.0625 C1.2309375 5.0315625 1.2309375 5.0315625 0 5 C0 3.35 0 1.7 0 0 Z " fill="#F8FAF2" transform="translate(74,34)"/>
</svg>
